<svg xmlns="http://www.w3.org/2000/svg" width="40" height="40" viewBox="0 0 40 40" fill="none">
<path d="M20.4021 25.5687C21.1125 25.5687 21.7209 25.4021 22.2272 25.0689C22.7335 24.7356 22.9863 24.2134 22.9854 23.5021C22.9854 22.8778 22.7219 22.3719 22.1949 21.9844C21.6679 21.5969 20.7259 21.1556 19.3688 20.6604C18.0986 20.2083 17.1677 19.6701 16.5762 19.0458C15.9846 18.4215 15.6884 17.6035 15.6875 16.5917C15.6875 15.709 15.9945 14.9073 16.6085 14.1866C17.2224 13.4658 18.0564 12.9974 19.1104 12.7812V12.2969C19.1104 11.9955 19.2237 11.732 19.4501 11.5064C19.6766 11.2808 19.9401 11.1675 20.2406 11.1667C20.5412 11.1658 20.8051 11.279 21.0324 11.5064C21.2597 11.7337 21.3726 11.9972 21.3708 12.2969V12.7812C21.9951 12.8243 22.5712 13.0344 23.0991 13.4116C23.6269 13.7887 24.0519 14.246 24.374 14.7833C24.5247 15.0201 24.5354 15.2733 24.4062 15.5428C24.2771 15.8124 24.0618 16.0005 23.7604 16.1073C23.4806 16.2149 23.2007 16.2257 22.9208 16.1396C22.641 16.0535 22.4149 15.892 22.2427 15.6552C22.0274 15.3969 21.7583 15.1872 21.4354 15.0262C21.1125 14.8651 20.725 14.7842 20.2729 14.7833C19.5194 14.7833 18.9434 14.9448 18.5447 15.2677C18.146 15.5906 17.9471 16.0319 17.9479 16.5917C17.9488 17.1514 18.1963 17.5927 18.6906 17.9156C19.1849 18.2385 20.0783 18.6153 21.3708 19.0458C22.9208 19.6056 23.9542 20.2622 24.4708 21.0156C24.9875 21.7691 25.2458 22.5979 25.2458 23.5021C25.2458 24.1264 25.1382 24.6753 24.9229 25.149C24.7076 25.6226 24.4222 26.0264 24.0665 26.3605C23.7109 26.6947 23.2967 26.9637 22.824 27.1678C22.3512 27.3719 21.8453 27.5278 21.3063 27.6354V28.1198C21.3063 28.4212 21.193 28.6851 20.9665 28.9116C20.7401 29.1381 20.4766 29.2509 20.176 29.25C19.8755 29.2491 19.612 29.1363 19.3855 28.9116C19.1591 28.6868 19.0458 28.4229 19.0458 28.1198V27.5708C18.2278 27.3986 17.5281 27.0757 16.9469 26.6021C16.3656 26.1285 15.9028 25.5257 15.5583 24.7937C15.4292 24.4924 15.4348 24.2017 15.5751 23.9219C15.7155 23.642 15.9359 23.4483 16.2365 23.3406C16.5163 23.233 16.7962 23.2382 17.076 23.3561C17.3559 23.4741 17.5712 23.6627 17.7219 23.9219C18.0233 24.4816 18.4056 24.8958 18.8689 25.1645C19.3322 25.4331 19.8432 25.5679 20.4021 25.5687ZM20.2083 34.4167C17.7972 34.4167 15.5799 33.8677 13.5562 32.7698C11.5326 31.6719 9.875 30.208 8.58333 28.3781V30.5417C8.58333 30.9076 8.45933 31.2146 8.21133 31.4626C7.96333 31.7106 7.65678 31.8342 7.29167 31.8333C6.92656 31.8325 6.62 31.7085 6.372 31.4613C6.124 31.2142 6 30.9076 6 30.5417V25.375C6 25.009 6.124 24.7025 6.372 24.4553C6.62 24.2082 6.92656 24.0842 7.29167 24.0833H12.4583C12.8243 24.0833 13.1313 24.2073 13.3793 24.4553C13.6273 24.7033 13.7509 25.0099 13.75 25.375C13.7491 25.7401 13.6251 26.0471 13.378 26.296C13.1309 26.5448 12.8243 26.6684 12.4583 26.6667H10.5531C11.5865 28.2167 12.9483 29.4653 14.6387 30.4125C16.329 31.3597 18.1856 31.8333 20.2083 31.8333C23.2437 31.8333 25.8542 30.8215 28.0397 28.7979C30.2252 26.7743 31.4682 24.2878 31.7688 21.3385C31.8118 20.9941 31.9625 20.7194 32.2208 20.5145C32.4792 20.3095 32.7806 20.2075 33.125 20.2083C33.491 20.2083 33.8031 20.3216 34.0615 20.548C34.3198 20.7745 34.4274 21.0488 34.3844 21.3708C34.2337 23.2007 33.7601 24.9066 32.9635 26.4884C32.167 28.0703 31.1337 29.4481 29.8635 30.6217C28.5934 31.7954 27.1351 32.7211 25.4887 33.3988C23.8422 34.0765 22.0821 34.4158 20.2083 34.4167ZM20.2083 8.58333C17.1729 8.58333 14.5629 9.59514 12.3783 11.6187C10.1936 13.6424 8.95017 16.1288 8.64792 19.0781C8.60486 19.4226 8.45417 19.6973 8.19583 19.9022C7.9375 20.1072 7.63611 20.2092 7.29167 20.2083C6.92569 20.2083 6.61354 20.0955 6.35521 19.8699C6.09687 19.6443 5.98924 19.3696 6.03229 19.0458C6.18299 17.216 6.6566 15.5101 7.45312 13.9282C8.24965 12.3464 9.28299 10.9686 10.5531 9.79492C11.8233 8.62122 13.282 7.69553 14.9293 7.01783C16.5766 6.34014 18.3363 6.00086 20.2083 6C22.6194 6 24.8368 6.54896 26.8604 7.64688C28.884 8.74479 30.5417 10.2087 31.8333 12.0385V9.875C31.8333 9.50903 31.9573 9.20247 32.2053 8.95533C32.4533 8.70819 32.7599 8.58419 33.125 8.58333C33.4901 8.58247 33.7971 8.70647 34.046 8.95533C34.2948 9.20419 34.4184 9.51075 34.4167 9.875V15.0417C34.4167 15.4076 34.2927 15.7146 34.0447 15.9626C33.7967 16.2106 33.4901 16.3342 33.125 16.3333H27.9583C27.5924 16.3333 27.2858 16.2093 27.0387 15.9613C26.7915 15.7133 26.6675 15.4068 26.6667 15.0417C26.6658 14.6766 26.7898 14.37 27.0387 14.122C27.2875 13.874 27.5941 13.75 27.9583 13.75H29.8635C28.8302 12.2 27.4688 10.9514 25.7793 10.0042C24.0898 9.05694 22.2328 8.58333 20.2083 8.58333Z" fill="#AAADAF"></path>
</svg>