<svg xmlns="http://www.w3.org/2000/svg" width="57" height="52" viewBox="0 0 57 52" fill="none">
    <path d="M0 16.2163C0.000874884 19.9807 1.43111 23.6284 4.04703 26.538C6.66296 29.4476 10.3027 31.4387 14.3462 32.1727C14.5765 29.8417 15.2315 27.5627 16.2842 25.4289C13.1634 24.466 11.1578 22.28 10.6875 19.1765H8.90625V17.7908H10.5664V16.3789C10.5664 16.2292 10.5664 16.0764 10.5806 15.9397H8.90625V14.5507H10.7267C11.5283 10.4908 15.0088 8.08358 20.2386 8.08358C21.3643 8.08358 22.3404 8.18441 23.1563 8.36009V10.7445C22.2034 10.5511 21.2288 10.4615 20.2528 10.4779C16.9788 10.4779 14.7737 11.9937 14.0754 14.5507H20.9048V15.9397H13.851C13.8403 16.0893 13.8403 16.2553 13.8403 16.418V17.7908H20.9048V19.1797H14.0007C14.421 21.1381 15.6678 22.5304 17.5809 23.1779C19.4568 20.3409 22.0365 17.9465 25.1119 16.1875C28.1876 14.4284 31.6726 13.354 35.2864 13.0511C34.4129 9.10018 31.9644 5.58608 28.4157 3.18937C24.8668 0.792662 20.4703 -0.316058 16.0774 0.0779821C11.6846 0.472009 7.60831 2.34077 4.63806 5.32225C1.66783 8.30372 0.0150984 12.1857 0 16.2163ZM57 34.1081C57 38.8533 54.9358 43.4041 51.2613 46.7597C47.5865 50.1151 42.603 52 37.4063 52C32.2095 52 27.2259 50.1151 23.5513 46.7597C19.8768 43.4041 17.8125 38.8533 17.8125 34.1081C17.8125 29.3628 19.8768 24.812 23.5513 21.4567C27.2259 18.1013 32.2095 16.2163 37.4063 16.2163C42.603 16.2163 47.5865 18.1013 51.2613 21.4567C54.9358 24.812 57 29.3628 57 34.1081ZM29.3907 38.4088C29.6363 41.1249 32.0483 43.2396 36.3873 43.49V45.4937H38.3112V43.4769C42.7961 43.1972 45.4218 41.0696 45.4218 37.9792C45.4218 35.1652 43.4164 33.7179 39.8288 32.9696L38.3112 32.6443V27.1921C40.2348 27.3873 41.4603 28.3211 41.7525 29.6156H45.1298C44.8803 27.0003 42.3544 24.954 38.3112 24.7295V22.7224H36.3873V24.7685C32.5542 25.1036 29.9463 27.1497 29.9463 30.0451C29.9463 32.6053 31.8843 34.2349 35.112 34.9019L36.3873 35.1783V40.9687C34.4138 40.7087 33.1098 39.7457 32.8144 38.4088H29.3907ZM36.3732 32.2441C34.4778 31.8536 33.4518 31.0601 33.4518 29.8628C33.4518 28.5291 34.5596 27.5239 36.3873 27.2311V32.2408H36.3694L36.3732 32.2441ZM38.589 35.6403C40.8866 36.1119 41.9483 36.8765 41.9483 38.2299C41.9483 39.7717 40.6304 40.8323 38.3149 41.0275V35.5817L38.589 35.6403Z" fill="#17A54D"></path>
</svg>