<svg xmlns="http://www.w3.org/2000/svg" width="54" height="55" viewBox="0 0 54 55" fill="none">
<path fill-rule="evenodd" clip-rule="evenodd" d="M31.5601 28.1115L30.8401 26.767C31.9201 25.9115 32.4001 24.567 31.8001 23.3448C30.8401 21.6337 29.0401 21.7559 27.6001 22.2448C26.0401 22.6115 25.4401 22.4893 25.0801 21.8781C24.7201 21.1448 25.0801 20.4115 26.0401 19.8004C27.1201 19.1893 27.7201 19.4337 28.2001 20.2893L29.5201 19.5559C28.9201 18.4559 27.7201 17.8448 26.4001 18.3337L25.6801 16.9893L23.8801 17.967L24.6001 19.3115C23.6401 20.2893 23.0401 21.5115 23.7601 22.7337C24.4801 24.2004 26.0401 24.2004 27.9601 23.7115C29.6401 23.2226 30.2401 23.7115 30.4801 24.2004C30.7201 24.6893 30.7201 25.5448 29.5201 26.2781C28.3201 27.0115 27.4801 26.6448 27.0001 26.0337L25.6801 26.767C26.5201 28.1115 27.8401 28.2337 29.1601 27.867L29.8801 29.2115L31.6801 28.2337L31.5601 28.1115Z" fill="#17A54D"></path>
<path fill-rule="evenodd" clip-rule="evenodd" d="M6.23984 20.6552L6.59984 21.8774C6.71984 20.8996 6.83984 19.9218 7.43984 18.9441C7.91984 18.333 8.51984 17.7218 9.11984 17.3552C9.11984 17.3552 9.35984 17.3552 9.35984 17.233C9.71984 17.1107 9.95984 16.8663 10.3198 16.7441L32.2798 4.27739C33.1198 3.78851 34.3198 3.54406 35.2798 3.54406C35.7598 3.54406 36.1198 3.54406 36.4798 3.78851C36.9598 3.91073 37.3198 4.15517 37.6798 4.39962C37.7998 4.39962 37.9198 4.64406 38.1598 4.64406C38.1598 4.64406 38.3998 4.64406 38.3998 4.76628L37.9198 3.91073C36.5998 1.46628 33.4798 0.488505 31.0798 1.83295L8.63984 14.5441C6.59984 15.7663 5.51984 18.2107 6.23984 20.5329V20.6552Z" fill="#17A54D"></path>
<path d="M47.6405 21.2666C47.6405 20.5332 47.4005 19.9221 46.9205 19.4332L41.5205 8.79991C40.9205 7.69991 40.0806 6.96658 38.8806 6.59992C37.6806 6.23325 36.4805 6.35547 35.4005 6.84436L10.0805 20.0444C9.72055 20.1666 9.48055 20.411 9.24055 20.6555C8.28055 21.0221 7.56055 21.9999 7.56055 23.0999C7.56055 24.1999 7.56055 23.4666 7.56055 23.5888C7.56055 24.4444 7.56055 25.4221 8.04055 26.2777L8.88055 27.9888H11.7605L10.6805 25.7888C11.8805 25.5444 12.7205 24.4444 12.7205 23.2221C12.7205 21.9999 12.6005 22.2444 12.3605 21.8777L34.8005 10.2666C35.0405 11.4888 36.1205 12.4666 37.3205 12.4666C38.5205 12.4666 39.1206 11.9777 39.4806 11.2444L43.5605 19.1888C42.7205 19.6777 42.2406 20.5332 42.2406 21.511C42.2406 22.4888 42.8405 23.5888 43.8005 23.9555L35.7605 28.111H41.4006L44.8806 26.2777C46.5606 25.4221 47.5205 23.5888 47.2806 21.7555C47.2806 21.7555 47.2806 21.6333 47.2806 21.511L47.6405 21.2666Z" fill="#17A54D"></path>
<path d="M31.9202 33.7329H48.0002V30.1884C48.0002 28.9662 47.1602 27.8662 46.0802 27.8662H9.1202C8.0402 27.8662 7.2002 28.844 7.2002 30.1884V51.4551C7.2002 52.6773 8.0402 53.7773 9.1202 53.7773H46.0802C47.1602 53.7773 48.0002 52.7995 48.0002 51.4551V47.9107H31.9202C29.8802 47.9107 28.2002 46.1995 28.2002 44.244V37.5218C28.2002 35.444 29.8802 33.8551 31.9202 33.8551V33.7329Z" fill="#17A54D"></path>
<path fill-rule="evenodd" clip-rule="evenodd" d="M36.4797 43.8778C35.0397 43.8778 33.9597 42.6556 33.9597 41.3111C33.9597 39.9667 35.1597 38.7445 36.4797 38.7445C37.7997 38.7445 38.9997 39.9667 38.9997 41.3111C38.9997 42.6556 37.7997 43.8778 36.4797 43.8778ZM31.5597 36.9111C31.0797 36.9111 30.7197 37.2778 30.7197 37.7667V44.7334C30.7197 45.2222 31.0797 45.5889 31.5597 45.5889H47.8797V36.9111H31.5597Z" fill="#17A54D"></path>
</svg>